<mxfile host="Electron" modified="2024-05-06T13:42:28.811Z" agent="Mozilla/5.0 (X11; Linux x86_64) AppleWebKit/537.36 (KHTML, like Gecko) draw.io/22.0.3 Chrome/118.0.5993.159 Electron/27.3.11 Safari/537.36" etag="nqxlBTNEIJcIzKfd31CD" version="22.0.3" type="device">
  <diagram name="Page-1" id="3_xUpbEmMFwrsd-nlipk">
    <mxGraphModel dx="3306" dy="1356" grid="1" gridSize="10" guides="1" tooltips="1" connect="1" arrows="1" fold="1" page="1" pageScale="1" pageWidth="1169" pageHeight="827" math="0" shadow="0">
      <root>
        <mxCell id="0" />
        <mxCell id="1" parent="0" />
        <mxCell id="uuPXR26b0aAbMTBFOYIL-3" value="" style="endArrow=none;html=1;rounded=0;entryX=0.5;entryY=0;entryDx=0;entryDy=0;exitX=0.5;exitY=1;exitDx=0;exitDy=0;dashed=1;" parent="1" source="uuPXR26b0aAbMTBFOYIL-19" target="uuPXR26b0aAbMTBFOYIL-8" edge="1">
          <mxGeometry width="50" height="50" relative="1" as="geometry">
            <mxPoint x="-405" y="492.5" as="sourcePoint" />
            <mxPoint x="-635" y="432.5" as="targetPoint" />
          </mxGeometry>
        </mxCell>
        <mxCell id="uuPXR26b0aAbMTBFOYIL-4" value="OAI UE" style="rounded=1;whiteSpace=wrap;html=1;" parent="1" vertex="1">
          <mxGeometry x="-815" y="512.5" width="120" height="110" as="geometry" />
        </mxCell>
        <mxCell id="uuPXR26b0aAbMTBFOYIL-8" value="Free5GC UPF" style="rounded=1;whiteSpace=wrap;html=1;" parent="1" vertex="1">
          <mxGeometry x="-460" y="512.5" width="120" height="110" as="geometry" />
        </mxCell>
        <mxCell id="uuPXR26b0aAbMTBFOYIL-9" value="oaitun_ue1&lt;br&gt;10.60.0.1" style="text;html=1;strokeColor=none;fillColor=none;align=center;verticalAlign=middle;whiteSpace=wrap;rounded=0;" parent="1" vertex="1">
          <mxGeometry x="-685" y="552.5" width="60" height="30" as="geometry" />
        </mxCell>
        <mxCell id="uuPXR26b0aAbMTBFOYIL-10" value="upfgtp" style="text;html=1;strokeColor=none;fillColor=none;align=center;verticalAlign=middle;whiteSpace=wrap;rounded=0;" parent="1" vertex="1">
          <mxGeometry x="-505" y="552.5" width="50" height="30" as="geometry" />
        </mxCell>
        <mxCell id="uuPXR26b0aAbMTBFOYIL-11" value="" style="curved=1;endArrow=classic;html=1;rounded=0;exitX=1;exitY=0.5;exitDx=0;exitDy=0;entryX=0;entryY=0.5;entryDx=0;entryDy=0;dashed=1;startArrow=classic;startFill=1;" parent="1" edge="1">
          <mxGeometry width="50" height="50" relative="1" as="geometry">
            <mxPoint x="-625" y="572.5" as="sourcePoint" />
            <mxPoint x="-505" y="572.5" as="targetPoint" />
            <Array as="points">
              <mxPoint x="-565" y="602.5" />
            </Array>
          </mxGeometry>
        </mxCell>
        <mxCell id="uuPXR26b0aAbMTBFOYIL-12" value="GTP tunnel&lt;br&gt;(only the UE end has an IP)" style="edgeLabel;html=1;align=center;verticalAlign=middle;resizable=0;points=[];" parent="uuPXR26b0aAbMTBFOYIL-11" vertex="1" connectable="0">
          <mxGeometry x="-0.0572" y="23" relative="1" as="geometry">
            <mxPoint x="-7" y="27" as="offset" />
          </mxGeometry>
        </mxCell>
        <mxCell id="uuPXR26b0aAbMTBFOYIL-15" value="Free5GC AMF" style="rounded=1;whiteSpace=wrap;html=1;dashed=1;" parent="1" vertex="1">
          <mxGeometry x="-790" y="412.5" width="70" height="60" as="geometry" />
        </mxCell>
        <mxCell id="uuPXR26b0aAbMTBFOYIL-19" value="Free5GC SMF" style="rounded=1;whiteSpace=wrap;html=1;dashed=1;" parent="1" vertex="1">
          <mxGeometry x="-435" y="412.5" width="70" height="60" as="geometry" />
        </mxCell>
        <mxCell id="uuPXR26b0aAbMTBFOYIL-38" value="" style="endArrow=none;html=1;rounded=0;entryX=0.5;entryY=0;entryDx=0;entryDy=0;exitX=0.5;exitY=1;exitDx=0;exitDy=0;dashed=1;" parent="1" source="uuPXR26b0aAbMTBFOYIL-15" target="uuPXR26b0aAbMTBFOYIL-4" edge="1">
          <mxGeometry width="50" height="50" relative="1" as="geometry">
            <mxPoint x="-755" y="492.5" as="sourcePoint" />
            <mxPoint x="-385" y="502.5" as="targetPoint" />
          </mxGeometry>
        </mxCell>
        <mxCell id="uuPXR26b0aAbMTBFOYIL-55" value="TSN AF" style="rounded=1;whiteSpace=wrap;html=1;dashed=1;" parent="1" vertex="1">
          <mxGeometry x="-435" y="252.5" width="70" height="60" as="geometry" />
        </mxCell>
        <mxCell id="uuPXR26b0aAbMTBFOYIL-58" value="DS-TT" style="shape=process;whiteSpace=wrap;html=1;backgroundOutline=1;" parent="1" vertex="1">
          <mxGeometry x="-815" y="592.5" width="120" height="30" as="geometry" />
        </mxCell>
        <mxCell id="uuPXR26b0aAbMTBFOYIL-59" value="NW-TT" style="shape=process;whiteSpace=wrap;html=1;backgroundOutline=1;" parent="1" vertex="1">
          <mxGeometry x="-460" y="592.5" width="120" height="30" as="geometry" />
        </mxCell>
        <mxCell id="uuPXR26b0aAbMTBFOYIL-60" value="" style="endArrow=none;html=1;rounded=0;entryX=0.5;entryY=1;entryDx=0;entryDy=0;" parent="1" target="uuPXR26b0aAbMTBFOYIL-58" edge="1">
          <mxGeometry width="50" height="50" relative="1" as="geometry">
            <mxPoint x="-755" y="692.5" as="sourcePoint" />
            <mxPoint x="-715" y="652.5" as="targetPoint" />
          </mxGeometry>
        </mxCell>
        <mxCell id="uuPXR26b0aAbMTBFOYIL-61" value="" style="endArrow=none;html=1;rounded=0;entryX=0.5;entryY=1;entryDx=0;entryDy=0;" parent="1" target="uuPXR26b0aAbMTBFOYIL-59" edge="1">
          <mxGeometry width="50" height="50" relative="1" as="geometry">
            <mxPoint x="-400.33000000000004" y="692.5" as="sourcePoint" />
            <mxPoint x="-400.33000000000004" y="622.5" as="targetPoint" />
          </mxGeometry>
        </mxCell>
        <mxCell id="uuPXR26b0aAbMTBFOYIL-64" value="" style="endArrow=none;html=1;rounded=0;entryX=1;entryY=0.5;entryDx=0;entryDy=0;exitX=0;exitY=0.5;exitDx=0;exitDy=0;dashed=1;" parent="1" source="uuPXR26b0aAbMTBFOYIL-19" target="uuPXR26b0aAbMTBFOYIL-15" edge="1">
          <mxGeometry width="50" height="50" relative="1" as="geometry">
            <mxPoint x="-745" y="422.5" as="sourcePoint" />
            <mxPoint x="-745" y="522.5" as="targetPoint" />
          </mxGeometry>
        </mxCell>
        <mxCell id="uuPXR26b0aAbMTBFOYIL-76" value="5G QoS parameters" style="edgeLabel;html=1;align=center;verticalAlign=middle;resizable=0;points=[];" parent="uuPXR26b0aAbMTBFOYIL-64" vertex="1" connectable="0">
          <mxGeometry x="0.0396" y="-1" relative="1" as="geometry">
            <mxPoint y="-19" as="offset" />
          </mxGeometry>
        </mxCell>
        <mxCell id="uuPXR26b0aAbMTBFOYIL-66" value="" style="endArrow=none;html=1;rounded=0;exitX=0.5;exitY=1;exitDx=0;exitDy=0;entryX=0.5;entryY=0;entryDx=0;entryDy=0;dashed=1;" parent="1" source="uuPXR26b0aAbMTBFOYIL-65" target="uuPXR26b0aAbMTBFOYIL-19" edge="1">
          <mxGeometry width="50" height="50" relative="1" as="geometry">
            <mxPoint x="-401" y="262.5" as="sourcePoint" />
            <mxPoint x="-401" y="352.5" as="targetPoint" />
          </mxGeometry>
        </mxCell>
        <mxCell id="uuPXR26b0aAbMTBFOYIL-67" value="" style="endArrow=none;html=1;rounded=0;exitX=0.5;exitY=1;exitDx=0;exitDy=0;entryX=0.5;entryY=0;entryDx=0;entryDy=0;dashed=1;" parent="1" source="uuPXR26b0aAbMTBFOYIL-55" target="uuPXR26b0aAbMTBFOYIL-65" edge="1">
          <mxGeometry width="50" height="50" relative="1" as="geometry">
            <mxPoint x="-391" y="272.5" as="sourcePoint" />
            <mxPoint x="-391" y="362.5" as="targetPoint" />
          </mxGeometry>
        </mxCell>
        <mxCell id="uuPXR26b0aAbMTBFOYIL-65" value="Free5GC PCF" style="rounded=1;whiteSpace=wrap;html=1;dashed=1;" parent="1" vertex="1">
          <mxGeometry x="-435" y="332.5" width="70" height="60" as="geometry" />
        </mxCell>
        <mxCell id="uuPXR26b0aAbMTBFOYIL-77" value="5G QoS parameters" style="edgeLabel;html=1;align=center;verticalAlign=middle;resizable=0;points=[];" parent="1" vertex="1" connectable="0">
          <mxGeometry x="-459.9981481481483" y="402.5" as="geometry" />
        </mxCell>
        <mxCell id="uuPXR26b0aAbMTBFOYIL-78" value="TSN QoS parameters" style="edgeLabel;html=1;align=center;verticalAlign=middle;resizable=0;points=[];" parent="1" vertex="1" connectable="0">
          <mxGeometry x="-459.9981481481483" y="322.5" as="geometry" />
        </mxCell>
        <mxCell id="uuPXR26b0aAbMTBFOYIL-79" value="" style="rounded=1;whiteSpace=wrap;html=1;" parent="1" vertex="1">
          <mxGeometry x="-860" y="152.5" width="75" height="40" as="geometry" />
        </mxCell>
        <mxCell id="uuPXR26b0aAbMTBFOYIL-80" value="TSN Relevant Component" style="text;html=1;strokeColor=none;fillColor=none;align=center;verticalAlign=middle;whiteSpace=wrap;rounded=0;" parent="1" vertex="1">
          <mxGeometry x="-785" y="157.5" width="160" height="30" as="geometry" />
        </mxCell>
        <mxCell id="uuPXR26b0aAbMTBFOYIL-82" value="Any Direct Communication" style="text;html=1;strokeColor=none;fillColor=none;align=center;verticalAlign=middle;whiteSpace=wrap;rounded=0;" parent="1" vertex="1">
          <mxGeometry x="-785" y="207.5" width="160" height="30" as="geometry" />
        </mxCell>
        <mxCell id="uuPXR26b0aAbMTBFOYIL-84" value="" style="endArrow=none;html=1;strokeWidth=2;rounded=0;" parent="1" edge="1">
          <mxGeometry width="50" height="50" relative="1" as="geometry">
            <mxPoint x="-860" y="222.13" as="sourcePoint" />
            <mxPoint x="-790" y="222.13" as="targetPoint" />
          </mxGeometry>
        </mxCell>
        <mxCell id="Xwj60kZ__02YXTAUqFwH-1" value="TSN CNC" style="ellipse;shape=cloud;whiteSpace=wrap;html=1;dashed=1;" parent="1" vertex="1">
          <mxGeometry x="-475" y="120" width="150" height="105" as="geometry" />
        </mxCell>
        <mxCell id="Xwj60kZ__02YXTAUqFwH-2" value="" style="endArrow=none;html=1;rounded=0;entryX=0.5;entryY=0;entryDx=0;entryDy=0;dashed=1;" parent="1" source="Xwj60kZ__02YXTAUqFwH-1" target="uuPXR26b0aAbMTBFOYIL-55" edge="1">
          <mxGeometry width="50" height="50" relative="1" as="geometry">
            <mxPoint x="-405" y="522.5" as="sourcePoint" />
            <mxPoint x="-355" y="472.5" as="targetPoint" />
          </mxGeometry>
        </mxCell>
        <mxCell id="Yc00w265oYfTOB-YRTNG-1" value="" style="endArrow=none;html=1;rounded=0;entryX=1;entryY=0.5;entryDx=0;entryDy=0;exitX=0.96;exitY=0.7;exitDx=0;exitDy=0;dashed=1;exitPerimeter=0;" parent="1" source="Xwj60kZ__02YXTAUqFwH-1" target="uuPXR26b0aAbMTBFOYIL-59" edge="1">
          <mxGeometry width="50" height="50" relative="1" as="geometry">
            <mxPoint x="-40" y="562.5" as="sourcePoint" />
            <mxPoint x="-325" y="562.5" as="targetPoint" />
            <Array as="points">
              <mxPoint x="-305" y="192.5" />
              <mxPoint x="-305" y="607.5" />
            </Array>
          </mxGeometry>
        </mxCell>
        <mxCell id="Yc00w265oYfTOB-YRTNG-3" value="" style="endArrow=none;html=1;rounded=0;entryX=0;entryY=0.5;entryDx=0;entryDy=0;exitX=0.13;exitY=0.77;exitDx=0;exitDy=0;dashed=1;exitPerimeter=0;" parent="1" source="Xwj60kZ__02YXTAUqFwH-1" target="uuPXR26b0aAbMTBFOYIL-58" edge="1">
          <mxGeometry width="50" height="50" relative="1" as="geometry">
            <mxPoint x="-966" y="188.5" as="sourcePoint" />
            <mxPoint x="-975" y="602.5" as="targetPoint" />
            <Array as="points">
              <mxPoint x="-545" y="200.5" />
              <mxPoint x="-545" y="372.5" />
              <mxPoint x="-865" y="372.5" />
              <mxPoint x="-865" y="607.5" />
            </Array>
          </mxGeometry>
        </mxCell>
        <mxCell id="ZzDYWDtEJLRi_4eX7W7Z-4" value="Ingress Timestamps communicated&lt;br style=&quot;font-size: 11px;&quot;&gt;&amp;nbsp;via Packet Suffix of PTP Messages&lt;br style=&quot;font-size: 11px;&quot;&gt;&lt;span style=&quot;font-size: 11px; background-color: rgb(24, 20, 29);&quot;&gt;Correction Factor gets updated with &lt;br&gt;Residence Time&amp;nbsp;&lt;/span&gt;&lt;span style=&quot;font-size: 11px; background-color: rgb(24, 20, 29);&quot;&gt;at Egress&lt;/span&gt;" style="text;html=1;strokeColor=none;fillColor=none;align=center;verticalAlign=middle;whiteSpace=wrap;rounded=0;" vertex="1" parent="1">
          <mxGeometry x="-710" y="630" width="275" height="80" as="geometry" />
        </mxCell>
      </root>
    </mxGraphModel>
  </diagram>
</mxfile>
